Coordinates
version=1
nRows=15
nColumns=63
inDegrees=yes

Units are S.I. units (second, meters, Newtons, ...)
If the header above contains a line with 'inDegrees', this indicates whether rotational values are in degrees (yes) or radians (no).

endheader
time	pelvis_tilt	pelvis_list	pelvis_rotation	pelvis_tx	pelvis_ty	pelvis_tz	hip_flexion_r	hip_adduction_r	hip_rotation_r	knee_angle_r	knee_angle_r_beta	ankle_angle_r	subtalar_angle_r	mtp_angle_r	hip_flexion_l	hip_adduction_l	hip_rotation_l	knee_angle_l	knee_angle_l_beta	ankle_angle_l	subtalar_angle_l	mtp_angle_l	L5_S1_Flex_Ext	L5_S1_Lat_Bending	L5_S1_axial_rotation	L4_L5_Flex_Ext	L4_L5_Lat_Bending	L4_L5_axial_rotation	L3_L4_Flex_Ext	L3_L4_Lat_Bending	L3_L4_axial_rotation	L2_L3_Flex_Ext	L2_L3_Lat_Bending	L2_L3_axial_rotation	L1_L2_Flex_Ext	L1_L2_Lat_Bending	L1_L2_axial_rotation	L1_T12_Flex_Ext	L1_T12_Lat_Bending	L1_T12_axial_rotation	Abs_r3	Abs_r2	Abs_r1	Abs_t1	Abs_t2	neck_flexion	neck_bending	neck_rotation	arm_flex_r	arm_add_r	arm_rot_r	elbow_flex_r	pro_sup_r	wrist_flex_r	wrist_dev_r	arm_flex_l	arm_add_l	arm_rot_l	elbow_flex_l	pro_sup_l	wrist_flex_l	wrist_dev_l
1.366667	8.072502	-5.837349	92.524975	0.111000	0.955117	0.672376	2.246826	5.244675	10.235905	9.028661	0.157580	29.018008	-2.058991	0.000000	-0.510865	-3.430238	5.275290	5.669979	0.098960	30.013483	-5.757687	0.000000	0.208483	1.011757	0.142346	0.387174	1.345637	0.151243	0.342517	2.459986	0.151243	0.238275	2.459986	0.124553	0.193597	2.063175	0.115656	0.119127	1.567212	0.106760	1.489174	11.445198	0.791686	0.000000	0.000000	24.494995	1.014926	6.369246	1.186523	-25.842268	41.820351	34.609031	85.027235	-2.904202	8.194966	-5.692330	-15.731652	30.814813	36.900226	87.850498	-8.867570	5.034423
1.383333	8.141458	-5.893848	92.145139	0.111564	0.955756	0.672581	2.289327	5.349164	10.702731	8.926844	0.155803	28.907884	-1.906359	0.000000	-0.644229	-3.486305	5.172322	5.370107	0.093726	29.702306	-6.117280	0.000000	0.226002	1.022665	0.228095	0.419709	1.360145	0.242350	0.371299	2.486509	0.242350	0.258298	2.486509	0.199583	0.209866	2.085419	0.185327	0.129138	1.584109	0.171071	1.614312	11.568596	1.268594	0.000000	0.000000	24.997661	0.604044	5.991165	0.451203	-25.802805	39.951845	35.370444	84.098383	-2.505657	8.689031	-5.214881	-15.986443	32.945629	36.528135	87.955441	-9.395388	4.659846
1.400000	8.230373	-5.941943	91.790417	0.112152	0.956422	0.672754	2.329719	5.479361	11.119729	8.832465	0.154156	28.843808	-1.708230	0.000000	-0.819204	-3.558871	5.278150	5.018738	0.087594	29.277056	-6.748295	0.000000	0.243768	1.034534	0.305067	0.452702	1.375931	0.324133	0.400487	2.515367	0.324133	0.278603	2.515367	0.266933	0.226363	2.109622	0.247867	0.139289	1.602494	0.228800	1.741211	11.702859	1.696689	0.000000	0.000000	25.445783	0.246371	5.668884	-0.154397	-25.793473	38.657435	36.085734	83.176923	-2.201502	8.945020	-4.729948	-16.276495	35.118752	36.171751	88.026349	-9.840549	4.287453
1.416667	8.334318	-5.976578	91.499593	0.112705	0.957100	0.672894	2.362134	5.612251	11.283100	8.740034	0.152542	28.864716	-1.232981	0.000000	-1.015416	-3.654472	5.417244	4.651442	0.081183	28.844966	-7.335850	0.000000	0.260999	1.046573	0.368419	0.484701	1.391943	0.391445	0.428795	2.544639	0.391445	0.298296	2.544639	0.322367	0.242364	2.134173	0.299340	0.149135	1.621142	0.276314	1.864290	11.839048	2.049036	0.000000	0.000000	25.833517	-0.053037	5.393702	-0.638467	-25.815062	37.810283	36.749014	82.382692	-2.008993	8.965985	-4.257749	-16.592634	37.176567	35.864543	88.075005	-10.078734	4.015290
1.433333	8.440445	-5.986557	91.256734	0.113213	0.957810	0.672993	2.374113	5.734978	11.252205	8.652195	0.151009	28.956497	-0.553295	0.000000	-1.247622	-3.753576	5.623913	4.264504	0.074430	28.402874	-7.954097	0.000000	0.276085	1.058289	0.416843	0.512718	1.407525	0.442895	0.453581	2.573125	0.442895	0.315538	2.573125	0.364737	0.256373	2.158064	0.338685	0.157755	1.639290	0.312632	1.972050	11.971580	2.318355	0.000000	0.000000	26.113357	-0.303555	5.215437	-0.938276	-25.872063	37.471753	37.328220	81.735907	-1.909283	8.785312	-3.805224	-16.915733	39.092391	35.591875	88.094290	-10.161216	3.790475
1.450000	8.542780	-5.961852	91.082041	0.113638	0.958547	0.672957	2.320840	5.851393	11.146240	8.516622	0.148643	29.064970	0.145263	0.000000	-1.515684	-3.852726	5.855235	3.878907	0.067700	27.994878	-8.518931	0.000000	0.289927	1.068955	0.452632	0.538423	1.421710	0.480922	0.476321	2.599056	0.480922	0.331358	2.599056	0.396053	0.269226	2.179812	0.367764	0.165664	1.655811	0.339474	2.070920	12.092227	2.517404	0.000000	0.000000	26.263231	-0.502745	5.108392	-1.178489	-25.959816	37.249704	37.865665	81.266989	-1.940746	8.417946	-3.382608	-17.236814	40.785187	35.375147	88.092858	-9.995133	3.751421
1.466667	8.628260	-5.908166	90.966353	0.113968	0.959292	0.672822	2.222698	5.935983	10.800718	8.369200	0.146070	29.202605	1.048176	0.000000	-1.797110	-3.947297	5.959600	3.521845	0.061468	27.672111	-8.842435	0.000000	0.302056	1.077576	0.477296	0.560948	1.433176	0.507127	0.496248	2.620019	0.507127	0.345220	2.620019	0.417634	0.280489	2.197393	0.387803	0.172595	1.669165	0.357972	2.157557	12.189756	2.654578	0.000000	0.000000	26.284189	-0.637210	5.084712	-1.380372	-26.053070	36.995202	38.370232	81.028149	-2.049710	7.916492	-3.009731	-17.537017	42.170309	35.232002	88.086934	-9.595509	3.914529
1.483333	8.679310	-5.818369	90.905323	0.114202	0.960051	0.672556	2.066508	5.968464	10.220731	8.216210	0.143400	29.345596	2.111208	0.000000	-2.103392	-4.011234	6.042071	3.188362	0.055647	27.401523	-9.087990	0.000000	0.311550	1.082562	0.486153	0.578580	1.439807	0.516537	0.511846	2.632141	0.516537	0.356071	2.632141	0.425384	0.289306	2.207560	0.394999	0.178020	1.676888	0.364614	2.225372	12.246157	2.703835	0.000000	0.000000	26.146450	-0.704841	5.186042	-1.531083	-26.126076	36.692149	38.827259	80.986894	-2.257841	7.338689	-2.740584	-17.801226	43.146042	35.180052	88.087677	-9.039992	4.227852
1.500000	8.689237	-5.692444	90.883725	0.114339	0.960806	0.672159	1.836539	5.958264	9.666593	8.039358	0.140313	29.392216	2.951836	0.000000	-2.439821	-4.027852	6.201546	2.868477	0.050064	27.142739	-9.422114	0.000000	0.318186	1.083293	0.486116	0.590903	1.440779	0.516498	0.522748	2.633918	0.516498	0.363655	2.633918	0.425351	0.295468	2.209050	0.394969	0.181812	1.678020	0.364587	2.272772	12.254422	2.703631	0.000000	0.000000	25.856879	-0.700299	5.366241	-1.664671	-26.161630	36.234251	39.250014	81.116065	-2.477176	6.767820	-2.572245	-18.028003	43.709443	35.236680	88.083857	-8.330045	4.753413
1.516667	8.649867	-5.535116	90.880659	0.114392	0.961551	0.671644	1.548308	5.886446	9.038118	7.863190	0.137239	29.370821	3.725357	0.000000	-2.799001	-3.989965	6.354555	2.570372	0.044861	26.907530	-9.748430	0.000000	0.321782	1.079075	0.482599	0.597581	1.435170	0.512761	0.528655	2.623663	0.512761	0.367765	2.623663	0.422274	0.298807	2.200449	0.392112	0.183866	1.671487	0.361949	2.298456	12.206710	2.684071	0.000000	0.000000	25.449171	-0.623595	5.620990	-1.780344	-26.146261	35.631314	39.624843	81.332483	-2.685796	6.237065	-2.514227	-18.204886	43.829783	35.410612	88.083787	-7.520127	5.494123
1.533333	8.568333	-5.356215	90.872910	0.114386	0.962267	0.671005	1.225562	5.755802	8.279705	7.710166	0.134568	29.334706	4.561329	0.000000	-3.169341	-3.905860	6.431117	2.302461	0.040186	26.709813	-9.986289	0.000000	0.323086	1.071241	0.475156	0.600002	1.424751	0.504854	0.530797	2.604616	0.504854	0.369255	2.604616	0.415762	0.300017	2.184475	0.386064	0.184611	1.659352	0.356367	2.307769	12.118093	2.642677	0.000000	0.000000	24.961609	-0.490223	5.965178	-1.835136	-26.088651	35.014866	39.937644	81.633283	-2.860461	5.805212	-2.613303	-18.324087	43.416608	35.716941	88.097555	-6.610031	6.376136
1.550000	8.451583	-5.157109	90.845735	0.114343	0.962964	0.670272	0.869156	5.582164	7.499989	7.566506	0.132060	29.270917	5.372321	0.000000	-3.551415	-3.779638	6.464803	2.062155	0.035991	26.544289	-10.186031	0.000000	0.321731	1.060513	0.469365	0.597487	1.410482	0.498700	0.528572	2.578530	0.498700	0.367706	2.578530	0.410694	0.298760	2.162597	0.381359	0.183837	1.642734	0.352023	2.298093	11.996730	2.610465	0.000000	0.000000	24.439245	-0.347634	6.320490	-1.832603	-25.989869	34.423579	40.172693	81.964118	-3.014885	5.447458	-2.801689	-18.408262	42.650973	36.135639	88.127655	-5.634010	7.419223
1.566667	8.312460	-4.945983	90.784954	0.114289	0.963653	0.669490	0.496318	5.388234	6.802872	7.432207	0.129716	29.194006	6.090963	0.000000	-3.935022	-3.623952	6.498953	1.852781	0.032337	26.393593	-10.413627	0.000000	0.318569	1.048846	0.470484	0.591614	1.394965	0.499889	0.523376	2.550164	0.499889	0.364092	2.550164	0.411674	0.295823	2.138807	0.382268	0.182030	1.624662	0.352863	2.275503	11.864756	2.616692	0.000000	0.000000	23.922752	-0.264216	6.645274	-1.775834	-25.863730	33.902166	40.321051	82.336739	-3.173228	5.137576	-3.029022	-18.464273	41.679273	36.622995	88.168618	-4.646814	8.555450
1.583333	8.160356	-4.732809	90.694644	0.114218	0.964332	0.668703	0.134576	5.177866	6.086390	7.326047	0.127864	29.151064	6.880261	0.000000	-4.306365	-3.449045	6.501462	1.677440	0.029277	26.268496	-10.610654	0.000000	0.314998	1.037048	0.478859	0.584983	1.379274	0.508787	0.517510	2.521479	0.508787	0.360011	2.521479	0.419001	0.292507	2.114748	0.389073	0.179990	1.606387	0.359144	2.249999	11.731294	2.663268	0.000000	0.000000	23.443324	-0.293689	6.845072	-1.676061	-25.723974	33.483609	40.388406	82.703592	-3.414101	4.812128	-3.254749	-18.514969	40.663102	37.158899	88.214233	-3.726115	9.726490
1.600000	8.009618	-4.528494	90.577615	0.114135	0.964996	0.667961	-0.194065	4.970771	5.384377	7.256059	0.126642	29.155152	7.713135	0.000000	-4.647107	-3.270565	6.481950	1.545988	0.026983	26.172575	-10.787161	0.000000	0.312656	1.027020	0.493988	0.580634	1.365936	0.524862	0.513663	2.497096	0.524862	0.357335	2.497096	0.432240	0.290333	2.094299	0.401365	0.178652	1.590853	0.370491	2.233274	11.617852	2.747413	0.000000	0.000000	23.021751	-0.469357	6.903482	-1.556237	-25.577765	33.119840	40.392956	83.069220	-3.710713	4.448109	-3.433012	-18.562712	39.749376	37.700740	88.274696	-2.892597	10.908755
